<svg width="150" height="150" viewBox="0 0 150 150" fill="none" xmlns="http://www.w3.org/2000/svg">
<g clip-path="url(#clip0)">
<path d="M56.1768 142.569C51.9668 142.569 47.8268 142.219 43.6368 142.649C41.6368 142.839 39.7168 143.059 37.7568 143.329C36.4614 143.355 35.1689 143.462 33.8868 143.649C32.3868 144.059 30.3868 145.489 32.3868 146.999C33.5968 147.909 35.5868 147.899 36.9568 148.209C38.5494 148.593 40.1666 148.867 41.7968 149.029C46.5068 149.479 51.1968 149.519 55.9268 149.519C61.4168 149.519 66.8468 149.729 72.3368 149.879C81.1468 150.109 89.8668 150.039 98.6468 149.419C102.457 149.159 107.647 149.059 111.417 148.729C114.577 148.459 116.417 148.179 119.567 147.949C121.445 147.816 123.297 147.422 125.067 146.779C126.827 146.019 123.727 144.709 122.657 144.149C121.387 143.429 116.327 142.749 116.327 142.749C116.327 142.749 108.657 142.339 103.477 142.349C95.9868 142.349 88.4768 141.569 80.9968 141.569C80.9968 141.529 64.8268 142.549 56.1768 142.569Z" fill="#E50000"/>
<path d="M104.717 143.859L104.097 140.469C103.836 139.059 103.134 137.767 102.092 136.782C101.049 135.797 99.7199 135.169 98.2968 134.989L83.7068 133.149C83.4593 133.124 83.2299 133.008 83.0635 132.823C82.8971 132.638 82.8055 132.398 82.8068 132.149V109.149C82.8068 108.391 82.5055 107.663 81.9691 107.127C81.4328 106.591 80.7053 106.289 79.9468 106.289H79.4968C79.1217 106.289 78.7503 106.363 78.4038 106.507C78.0574 106.651 77.7428 106.862 77.478 107.128C77.2132 107.393 77.0035 107.709 76.8609 108.056C76.7182 108.403 76.6455 108.774 76.6468 109.149V132.149C76.6478 132.4 76.5549 132.641 76.3864 132.826C76.2179 133.012 75.9861 133.127 75.7368 133.149L61.1068 134.989C59.6837 135.169 58.3547 135.797 57.312 136.782C56.2693 137.767 55.5671 139.059 55.3068 140.469L54.7068 143.749C54.5635 144.461 54.704 145.2 55.0982 145.809C55.4925 146.418 56.1092 146.849 56.8168 147.009C57.1738 147.081 57.5417 147.081 57.8986 147.008C58.2555 146.936 58.5942 146.792 58.8945 146.586C59.1948 146.38 59.4507 146.115 59.6469 145.808C59.8431 145.502 59.9757 145.158 60.0368 144.799L60.6568 141.089C60.7242 140.737 60.9039 140.416 61.1689 140.175C61.4338 139.933 61.7699 139.784 62.1268 139.749L75.6068 138.499C75.872 138.499 76.1264 138.605 76.3139 138.792C76.5014 138.98 76.6068 139.234 76.6068 139.499V144.919C76.6094 145.295 76.6864 145.667 76.8333 146.013C76.9802 146.359 77.1941 146.673 77.4627 146.936C77.7313 147.199 78.0494 147.406 78.3985 147.546C78.7476 147.685 79.1208 147.755 79.4968 147.749H79.9468C80.7036 147.749 81.4295 147.449 81.9656 146.915C82.5016 146.381 82.8041 145.656 82.8068 144.899V139.479C82.8221 139.225 82.9342 138.985 83.1201 138.811C83.306 138.636 83.5516 138.539 83.8068 138.539L97.2768 139.749C97.637 139.783 97.9761 139.935 98.2417 140.181C98.5073 140.427 98.6848 140.753 98.7468 141.109L99.3468 144.699C99.4426 145.316 99.7398 145.884 100.192 146.315C100.644 146.745 101.226 147.014 101.847 147.079C102.263 147.112 102.681 147.047 103.069 146.891C103.456 146.736 103.802 146.492 104.08 146.181C104.358 145.869 104.56 145.497 104.67 145.095C104.781 144.692 104.797 144.269 104.717 143.859Z" fill="#AB9593"/>
<path d="M109.387 101.809C108.727 100.289 108.067 98.8092 107.267 97.3192C103.687 90.8492 94.6068 89.3192 86.0068 88.9692C85.5468 87.8192 85.1168 86.6792 84.7268 85.5692C82.6268 79.5692 72.1868 55.8392 71.3368 54.3992C71.3368 54.8492 69.9168 49.3992 64.1668 48.7792C62.7368 47.8892 58.9168 47.7792 57.0568 47.7792C52.4968 47.7792 50.1968 47.5092 43.3868 47.4692C38.4968 47.4692 33.9068 47.3892 29.6468 50.0792C22.6468 54.5392 24.1868 63.2192 25.6468 70.2892C27.6468 79.5692 30.3968 86.9992 33.6468 95.5892C36.4268 102.869 43.7568 114.089 48.7068 118.159C56.1968 124.309 67.5068 127.409 84.9768 127.409C106.977 127.409 124.757 121.289 124.757 113.749C124.817 109.259 118.877 104.749 109.387 101.809Z" fill="#5E0D98"/>
<path d="M62.9068 52.2492C62.9068 52.2492 37.1768 49.8292 33.5368 53.1592C29.8968 56.4892 33.0668 67.5892 37.7068 76.3992C44.7068 89.7192 58.7968 104.059 58.7968 104.059L83.2268 100.059L62.6068 54.1892" fill="#36164A"/>
<path d="M83.0168 29.6593C88.7521 34.0559 93.9154 39.1521 98.3868 44.8293C105.727 54.1693 110.157 61.0893 111.807 71.5293C115.317 93.9893 107.187 100.179 97.3868 110.809C94.1968 114.269 86.9368 115.109 77.5468 111.479C68.7068 108.059 57.8268 101.559 54.1568 88.3993C49.3268 71.1193 56.3868 54.2993 63.3868 40.4793C66.3168 34.6293 65.8668 28.6993 64.0068 22.5593C63.8634 21.9814 63.8952 21.374 64.0981 20.8142C64.301 20.2545 64.6659 19.7678 65.1463 19.4161C65.6267 19.0644 66.2009 18.8635 66.7957 18.8392C67.3906 18.8148 67.9793 18.968 68.4868 19.2793C73.4368 22.6393 79.5868 27.1093 83.0168 29.6593Z" fill="#1AE570"/>
<path d="M82.6468 68.8494C82.2112 68.8459 81.7921 68.682 81.4698 68.3888C81.1475 68.0956 80.9446 67.6939 80.9 67.2605C80.8555 66.8271 80.9723 66.3925 81.2282 66.0399C81.484 65.6873 81.861 65.4414 82.2868 65.3494C82.514 65.3001 82.7487 65.2968 82.9771 65.3398C83.2056 65.3827 83.4231 65.471 83.6168 65.5994C83.8158 65.7295 83.9866 65.8984 84.1189 66.096C84.2512 66.2936 84.3423 66.5158 84.3868 66.7494C84.4361 66.9765 84.4394 67.2112 84.3964 67.4397C84.3535 67.6681 84.2652 67.8856 84.1368 68.0794C83.8766 68.4688 83.4748 68.7414 83.0168 68.8394C82.894 68.8531 82.7702 68.8564 82.6468 68.8494Z" fill="#411007"/>
<path d="M96.1768 65.8592C95.7411 65.8557 95.322 65.6917 94.9997 65.3986C94.6774 65.1054 94.4746 64.7037 94.43 64.2703C94.3854 63.8369 94.5023 63.4023 94.7581 63.0497C95.014 62.6971 95.391 62.4512 95.8168 62.3592C96.2758 62.2695 96.7517 62.3589 97.1468 62.6092C97.5405 62.8741 97.8136 63.2838 97.9068 63.7492C97.955 63.9764 97.9578 64.211 97.915 64.4393C97.8721 64.6676 97.7845 64.8852 97.6571 65.0795C97.5298 65.2738 97.3652 65.441 97.1729 65.5713C96.9806 65.7017 96.7644 65.7927 96.5368 65.8392C96.4181 65.8606 96.2972 65.8673 96.1768 65.8592Z" fill="#411007"/>
<path d="M86.5368 74.4192C83.813 74.5349 81.1294 73.7319 78.9168 72.1392C78.7869 72.0481 78.6775 71.931 78.5955 71.7952C78.5135 71.6595 78.4607 71.5081 78.4406 71.3507C78.4204 71.1934 78.4333 71.0336 78.4784 70.8816C78.5235 70.7295 78.5999 70.5885 78.7026 70.4677C78.8053 70.3468 78.9321 70.2487 79.0749 70.1796C79.2177 70.1105 79.3733 70.072 79.5318 70.0665C79.6903 70.061 79.8482 70.0887 79.9954 70.1477C80.1427 70.2067 80.276 70.2958 80.3868 70.4092C80.5168 70.5192 83.7968 73.1692 90.2168 71.6992C95.6168 70.4592 97.7968 67.6992 97.8168 67.6392C97.9972 67.3965 98.2665 67.2355 98.5656 67.1914C98.8648 67.1473 99.1691 67.2239 99.4118 67.4042C99.6545 67.5846 99.8156 67.8539 99.8596 68.153C99.9037 68.4522 99.8272 68.7565 99.6468 68.9992C99.5368 69.1392 97.0068 72.4792 90.7268 73.9192C89.3528 74.2395 87.9476 74.4072 86.5368 74.4192Z" fill="#411007"/>
<path d="M83.1868 113.229C83.1868 113.229 104.377 113.529 108.617 113.829C112.857 114.129 111.317 125.909 111.317 128.029C111.317 130.149 118.587 128.939 118.887 127.729C119.187 126.519 120.127 111.729 117.697 109.289C115.267 106.849 107.387 104.749 105.287 104.139C103.187 103.529 91.6668 104.449 91.6668 104.449L83.1868 113.229Z" fill="#1AE570"/>
<path d="M110.057 104.609C108.485 104.605 106.915 104.502 105.357 104.299C104.387 104.14 103.518 103.609 102.934 102.819C102.349 102.029 102.095 101.043 102.225 100.069C102.355 99.0955 102.859 98.2106 103.63 97.602C104.401 96.9935 105.379 96.7091 106.357 96.8093C110.457 97.3193 115.357 96.8093 116.167 95.8093C116.397 95.5393 116.377 95.4693 116.357 95.3793C115.817 93.3293 110.387 89.7493 105.877 87.7493C105.417 87.5563 105 87.2746 104.649 86.9203C104.299 86.5661 104.021 86.1462 103.832 85.6847C103.644 85.2232 103.548 84.7291 103.551 84.2306C103.553 83.7321 103.654 83.2389 103.847 82.7793C104.04 82.3197 104.322 81.9026 104.676 81.5518C105.03 81.201 105.45 80.9235 105.911 80.735C106.373 80.5465 106.867 80.4507 107.366 80.4532C107.864 80.4556 108.357 80.5563 108.817 80.7493C110.997 81.6693 121.947 86.5993 123.647 93.4293C123.943 94.6442 123.947 95.9121 123.659 97.1289C123.37 98.3457 122.797 99.4768 121.987 100.429C121.117 101.599 117.957 104.609 110.057 104.609Z" fill="#1AE570"/>
<path d="M112.727 111.049L100.467 111.309C100.062 111.319 99.6595 111.238 99.2896 111.073C98.9197 110.908 98.5914 110.661 98.3288 110.353C98.0662 110.044 97.8758 109.681 97.7717 109.289C97.6675 108.898 97.6522 108.488 97.7268 108.089L102.047 84.7493C102.218 83.8516 102.691 83.0395 103.388 82.4482C104.085 81.8569 104.963 81.522 105.877 81.4993L118.137 81.2393C118.541 81.2312 118.943 81.3132 119.312 81.4793C119.681 81.6454 120.008 81.8914 120.27 82.1996C120.533 82.5077 120.723 82.8704 120.828 83.2612C120.933 83.652 120.95 84.0612 120.877 84.4593L116.557 107.799C116.386 108.697 115.912 109.509 115.216 110.1C114.519 110.692 113.64 111.027 112.727 111.049Z" fill="#3654FF"/>
<path d="M104.477 79.7492C104.176 79.7499 103.884 79.6526 103.644 79.4722C103.404 79.2917 103.229 79.0379 103.147 78.7492L101.437 72.7492C101.356 72.4041 101.41 72.0409 101.589 71.735C101.769 71.4291 102.059 71.204 102.4 71.1062C102.74 71.0085 103.106 71.0457 103.42 71.21C103.734 71.3744 103.973 71.6534 104.087 71.9892L105.807 77.9892C105.855 78.1671 105.867 78.3529 105.843 78.5356C105.818 78.7183 105.758 78.8944 105.665 79.0535C105.572 79.2127 105.448 79.3517 105.301 79.4626C105.153 79.5734 104.985 79.6538 104.807 79.6992C104.699 79.7264 104.588 79.7432 104.477 79.7492Z" fill="white"/>
<path d="M98.8968 83.9692C98.7063 83.9665 98.5186 83.9231 98.3461 83.8421C98.1737 83.761 98.0205 83.6441 97.8968 83.4992L94.1868 79.2692C93.9455 78.9934 93.8236 78.633 93.848 78.2673C93.86 78.0862 93.9077 77.9093 93.9881 77.7466C94.0686 77.584 94.1803 77.4387 94.3168 77.3192C94.4534 77.1997 94.6122 77.1083 94.7841 77.0501C94.956 76.992 95.1377 76.9683 95.3188 76.9804C95.6844 77.0047 96.0255 77.1734 96.2668 77.4492L99.9668 81.6792C100.088 81.8151 100.181 81.9737 100.24 82.1458C100.299 82.3178 100.323 82.5 100.311 82.6815C100.299 82.863 100.25 83.0403 100.169 83.203C100.088 83.3657 99.9748 83.5106 99.8368 83.6292C99.5785 83.8586 99.2421 83.9803 98.8968 83.9692Z" fill="white"/>
<path d="M117.657 103.529C119.452 103.529 120.907 102.074 120.907 100.279C120.907 98.4844 119.452 97.0293 117.657 97.0293C115.862 97.0293 114.407 98.4844 114.407 100.279C114.407 102.074 115.862 103.529 117.657 103.529Z" fill="#1AE570"/>
<path d="M117.373 88.0075C117.92 86.867 117.579 85.567 116.613 85.1041C115.647 84.6411 114.421 85.1905 113.874 86.331C113.328 87.4716 113.668 88.7715 114.634 89.2345C115.6 89.6974 116.827 89.1481 117.373 88.0075Z" fill="white"/>
<path d="M68.0068 99.7993C83.1968 108.159 82.0068 89.0393 89.6768 86.7993" stroke="url(#paint0_linear)" stroke-width="5.64" stroke-miterlimit="10" stroke-linecap="round"/>
<path d="M41.5268 92.3393C51.3168 92.3393 69.9368 90.6493 75.4668 100.649C77.1368 103.649 78.2168 107.069 79.9768 110.019C81.7368 112.969 83.4468 113.259 86.1668 115.019C79.1668 115.229 70.9168 114.869 64.2668 112.569C59.4968 110.929 55.6568 109.899 52.2668 105.929C49.1268 102.219 43.6768 97.7493 42.0868 93.2893C42.2668 93.5693 42.3168 93.8593 41.5268 92.3393Z" fill="#5E0D98"/>
</g>
<defs>
<linearGradient id="paint0_linear" x1="67.0754" y1="89.9719" x2="85.5334" y2="98.0635" gradientUnits="userSpaceOnUse">
<stop stop-color="#2FE475"/>
<stop offset="1" stop-color="#00BD64"/>
</linearGradient>
<clipPath id="clip0">
<rect width="150" height="150" fill="white"/>
</clipPath>
</defs>
</svg>
