<?xml version="1.0" encoding="UTF-8"?>
<svg xmlns="http://www.w3.org/2000/svg" xmlns:xlink="http://www.w3.org/1999/xlink" width="41px" height="40px" viewBox="0 0 41 40" version="1.1">
<g id="surface1">
<path style=" stroke:none;fill-rule:nonzero;fill:rgb(98.431373%,96.470588%,96.078431%);fill-opacity:1;" d="M 41 20 C 41 31.046875 31.820312 40 20.5 40 C 9.179688 40 0 31.046875 0 20 C 0 8.953125 9.179688 0 20.5 0 C 31.820312 0 41 8.953125 41 20 Z M 41 20 "/>
<path style=" stroke:none;fill-rule:nonzero;fill:rgb(26.27451%,8.627451%,36.078431%);fill-opacity:1;" d="M 33.59375 13.578125 C 33.28125 12.433594 32.355469 11.53125 31.175781 11.21875 C 29.042969 10.664062 20.496094 10.664062 20.496094 10.664062 C 20.496094 10.664062 11.945312 10.664062 9.8125 11.21875 C 8.640625 11.523438 7.714844 12.429688 7.394531 13.578125 C 6.828125 15.660156 6.828125 20 6.828125 20 C 6.828125 20 6.828125 24.339844 7.394531 26.421875 C 7.707031 27.566406 8.636719 28.46875 9.8125 28.78125 C 11.945312 29.335938 20.496094 29.335938 20.496094 29.335938 C 20.496094 29.335938 29.042969 29.335938 31.175781 28.78125 C 32.347656 28.476562 33.277344 27.570312 33.59375 26.421875 C 34.164062 24.339844 34.164062 20 34.164062 20 C 34.164062 20 34.164062 15.660156 33.59375 13.578125 Z M 17.761719 24 L 17.761719 16 L 24.867188 20 Z M 17.761719 24 "/>
</g>
</svg>
