<svg width="144" height="48" viewBox="0 0 144 48" fill="none" xmlns="http://www.w3.org/2000/svg">
<rect x="0.5" y="0.5" width="143" height="47" rx="6.5" fill="#0C0D10"/>
<path d="M97.831 23.0414V25.7906H96.1078V27.5936H97.831V33.7195C97.831 35.8113 98.7773 36.6481 101.158 36.6481C101.576 36.6481 101.975 36.5983 102.323 36.5385V34.7555C102.025 34.7854 101.835 34.8053 101.507 34.8053C100.441 34.8053 99.9726 34.3072 99.9726 33.1717V27.5936H102.323V25.7906H99.9726V23.0414H97.831Z" fill="white"/>
<path d="M108.388 36.7975C111.556 36.7975 113.498 34.6758 113.498 31.1596C113.498 27.6633 111.546 25.5317 108.388 25.5317C105.22 25.5317 103.268 27.6633 103.268 31.1596C103.268 34.6758 105.21 36.7975 108.388 36.7975ZM108.388 34.8949C106.525 34.8949 105.479 33.5303 105.479 31.1596C105.479 28.8088 106.525 27.4342 108.388 27.4342C110.241 27.4342 111.297 28.8088 111.297 31.1596C111.297 33.5203 110.241 34.8949 108.388 34.8949Z" fill="white"/>
<path d="M115.16 36.5883H117.301V30.1834C117.301 28.6594 118.447 27.6334 120.071 27.6334C120.449 27.6334 121.087 27.7031 121.266 27.7629V25.6512C121.037 25.5914 120.628 25.5615 120.31 25.5615C118.895 25.5615 117.69 26.3385 117.381 27.4043H117.222V25.7408H115.16V36.5883Z" fill="white"/>
<path d="M126.583 27.3545C128.167 27.3545 129.203 28.4602 129.253 30.1635H123.774C123.894 28.4701 125 27.3545 126.583 27.3545ZM129.243 33.6598C128.845 34.5065 127.958 34.9746 126.663 34.9746C124.95 34.9746 123.844 33.7694 123.774 31.8668V31.7473H131.434V31.0002C131.434 27.5936 129.612 25.5317 126.593 25.5317C123.535 25.5317 121.593 27.733 121.593 31.1994C121.593 34.6658 123.496 36.7975 126.603 36.7975C129.084 36.7975 130.817 35.6022 131.305 33.6598H129.243Z" fill="white"/>
<path d="M83.7867 32.5825C83.9519 35.2461 86.1716 36.9496 89.4754 36.9496C93.0062 36.9496 95.2156 35.1636 95.2156 32.3141C95.2156 30.0737 93.9561 28.8348 90.9001 28.1224L89.2585 27.7198C87.3176 27.2655 86.533 26.6564 86.533 25.593C86.533 24.2509 87.7512 23.3733 89.5786 23.3733C91.3131 23.3733 92.5107 24.2302 92.7275 25.6033H94.9782C94.844 23.0945 92.6346 21.3291 89.6096 21.3291C86.3574 21.3291 84.1894 23.0945 84.1894 25.7479C84.1894 27.9366 85.4179 29.2375 88.1126 29.8672L90.0329 30.3318C92.0048 30.7964 92.872 31.4778 92.872 32.6135C92.872 33.935 91.5092 34.8951 89.6509 34.8951C87.6583 34.8951 86.2748 33.9969 86.0787 32.5825H83.7867Z" fill="white"/>
<path d="M61.6019 25.5615C60.1277 25.5615 58.8527 26.2986 58.1953 27.5338H58.0359V25.7408H55.974V40.1942H58.1156V34.9447H58.2849C58.8527 36.0903 60.0779 36.7676 61.6218 36.7676C64.3611 36.7676 66.1043 34.6061 66.1043 31.1596C66.1043 27.7131 64.3611 25.5615 61.6019 25.5615ZM60.9943 34.8451C59.2013 34.8451 58.0757 33.4307 58.0757 31.1695C58.0757 28.8985 59.2013 27.484 61.0043 27.484C62.8171 27.484 63.9029 28.8686 63.9029 31.1596C63.9029 33.4606 62.8171 34.8451 60.9943 34.8451Z" fill="white"/>
<path d="M73.5981 25.5615C72.1238 25.5615 70.8488 26.2986 70.1914 27.5338H70.0321V25.7408H67.9701V40.1942H70.1117V34.9447H70.2811C70.8488 36.0903 72.074 36.7676 73.618 36.7676C76.3572 36.7676 78.1004 34.6061 78.1004 31.1596C78.1004 27.7131 76.3572 25.5615 73.5981 25.5615ZM72.9904 34.8451C71.1975 34.8451 70.0719 33.4307 70.0719 31.1695C70.0719 28.8985 71.1975 27.484 73.0004 27.484C74.8133 27.484 75.899 28.8686 75.899 31.1596C75.899 33.4606 74.8133 34.8451 72.9904 34.8451Z" fill="white"/>
<path d="M52.1316 36.5883H54.5887L49.2098 21.6904H46.7217L41.3428 36.5883H43.7173L45.0905 32.6341H50.7688L52.1316 36.5883ZM47.847 24.3954H48.0225L50.1803 30.6932H45.6789L47.847 24.3954Z" fill="white"/>
<path d="M42.7814 10.4531V17.6399H45.3762C47.5178 17.6399 48.7579 16.3201 48.7579 14.0241C48.7579 11.763 47.5078 10.4531 45.3762 10.4531H42.7814ZM43.897 11.4691H45.2517C46.7408 11.4691 47.6224 12.4154 47.6224 14.0391C47.6224 15.6876 46.7558 16.6239 45.2517 16.6239H43.897V11.4691Z" fill="white"/>
<path d="M52.556 17.7445C54.1398 17.7445 55.111 16.6837 55.111 14.9256C55.111 13.1774 54.1348 12.1116 52.556 12.1116C50.9722 12.1116 49.9961 13.1774 49.9961 14.9256C49.9961 16.6837 50.9673 17.7445 52.556 17.7445ZM52.556 16.7933C51.6247 16.7933 51.1017 16.1109 51.1017 14.9256C51.1017 13.7502 51.6247 13.0629 52.556 13.0629C53.4824 13.0629 54.0103 13.7502 54.0103 14.9256C54.0103 16.106 53.4824 16.7933 52.556 16.7933Z" fill="white"/>
<path d="M63.3816 12.2162H62.3108L61.3446 16.355H61.2599L60.1443 12.2162H59.1183L58.0027 16.355H57.923L56.9518 12.2162H55.8661L57.3602 17.6399H58.4609L59.5765 13.6456H59.6612L60.7818 17.6399H61.8924L63.3816 12.2162Z" fill="white"/>
<path d="M64.6147 17.6399H65.6855V14.4674C65.6855 13.6207 66.1886 13.0928 66.9805 13.0928C67.7724 13.0928 68.1509 13.5261 68.1509 14.3977V17.6399H69.2217V14.1287C69.2217 12.8388 68.5543 12.1116 67.344 12.1116C66.5272 12.1116 65.9894 12.4752 65.7254 13.0778H65.6457V12.2162H64.6147V17.6399Z" fill="white"/>
<path d="M70.9081 17.6399H71.9789V10.0995H70.9081V17.6399Z" fill="white"/>
<path d="M76.0061 17.7445C77.5899 17.7445 78.5611 16.6837 78.5611 14.9256C78.5611 13.1774 77.5849 12.1116 76.0061 12.1116C74.4223 12.1116 73.4461 13.1774 73.4461 14.9256C73.4461 16.6837 74.4173 17.7445 76.0061 17.7445ZM76.0061 16.7933C75.0747 16.7933 74.5518 16.1109 74.5518 14.9256C74.5518 13.7502 75.0747 13.0629 76.0061 13.0629C76.9324 13.0629 77.4604 13.7502 77.4604 14.9256C77.4604 16.106 76.9324 16.7933 76.0061 16.7933Z" fill="white"/>
<path d="M81.7515 16.8281C81.1688 16.8281 80.7455 16.5442 80.7455 16.0562C80.7455 15.578 81.0842 15.324 81.8312 15.2742L83.156 15.1896V15.6428C83.156 16.3151 82.5584 16.8281 81.7515 16.8281ZM81.4776 17.7296C82.1898 17.7296 82.7825 17.4208 83.1062 16.8779H83.1909V17.6399H84.2219V13.9345C84.2219 12.789 83.4549 12.1116 82.0952 12.1116C80.865 12.1116 79.9885 12.7093 79.8789 13.6406H80.9148C81.0344 13.2571 81.4477 13.038 82.0454 13.038C82.7775 13.038 83.156 13.3617 83.156 13.9345V14.4026L81.6868 14.4873C80.3969 14.567 79.6697 15.1298 79.6697 16.106C79.6697 17.0971 80.4317 17.7296 81.4776 17.7296Z" fill="white"/>
<path d="M87.8556 17.7296C88.6027 17.7296 89.2352 17.376 89.5589 16.7833H89.6436V17.6399H90.6696V10.0995H89.5988V13.0778H89.5191C89.2252 12.4802 88.5977 12.1266 87.8556 12.1266C86.486 12.1266 85.6044 13.2123 85.6044 14.9256C85.6044 16.6439 86.476 17.7296 87.8556 17.7296ZM88.1594 13.0878C89.0559 13.0878 89.6187 13.8 89.6187 14.9306C89.6187 16.0661 89.0609 16.7684 88.1594 16.7684C87.253 16.7684 86.7101 16.0761 86.7101 14.9256C86.7101 13.7851 87.2579 13.0878 88.1594 13.0878Z" fill="white"/>
<path d="M97.6133 17.7445C99.1971 17.7445 100.168 16.6837 100.168 14.9256C100.168 13.1774 99.1922 12.1116 97.6133 12.1116C96.0296 12.1116 95.0534 13.1774 95.0534 14.9256C95.0534 16.6837 96.0246 17.7445 97.6133 17.7445ZM97.6133 16.7933C96.682 16.7933 96.159 16.1109 96.159 14.9256C96.159 13.7502 96.682 13.0629 97.6133 13.0629C98.5397 13.0629 99.0676 13.7502 99.0676 14.9256C99.0676 16.106 98.5397 16.7933 97.6133 16.7933Z" fill="white"/>
<path d="M101.586 17.6399H102.657V14.4674C102.657 13.6207 103.16 13.0928 103.951 13.0928C104.743 13.0928 105.122 13.5261 105.122 14.3977V17.6399H106.193V14.1287C106.193 12.8388 105.525 12.1116 104.315 12.1116C103.498 12.1116 102.96 12.4752 102.696 13.0778H102.617V12.2162H101.586V17.6399Z" fill="white"/>
<path d="M111.124 10.8665V12.2411H110.263V13.1426H111.124V16.2056C111.124 17.2515 111.597 17.6698 112.788 17.6698C112.997 17.6698 113.196 17.6449 113.371 17.615V16.7235C113.221 16.7385 113.127 16.7484 112.962 16.7484C112.429 16.7484 112.195 16.4994 112.195 15.9316V13.1426H113.371V12.2411H112.195V10.8665H111.124Z" fill="white"/>
<path d="M114.808 17.6399H115.879V14.4724C115.879 13.6506 116.367 13.0978 117.243 13.0978C118 13.0978 118.404 13.536 118.404 14.4026V17.6399H119.475V14.1387C119.475 12.8487 118.762 12.1166 117.607 12.1166C116.79 12.1166 116.217 12.4802 115.953 13.0878H115.869V10.0995H114.808V17.6399Z" fill="white"/>
<path d="M123.337 13.0231C124.129 13.0231 124.647 13.5759 124.672 14.4275H121.933C121.993 13.5809 122.546 13.0231 123.337 13.0231ZM124.667 16.1757C124.468 16.599 124.025 16.8331 123.377 16.8331C122.521 16.8331 121.968 16.2305 121.933 15.2792V15.2194H125.763V14.8459C125.763 13.1426 124.852 12.1116 123.342 12.1116C121.813 12.1116 120.842 13.2123 120.842 14.9455C120.842 16.6787 121.794 17.7445 123.347 17.7445C124.588 17.7445 125.454 17.1469 125.698 16.1757H124.667Z" fill="white"/>
<path d="M24.769 24.3011C24.7907 22.6201 25.6934 21.0295 27.1256 20.149C26.2221 18.8587 24.7088 18.0406 23.1344 17.9913C21.4552 17.8151 19.8272 18.9962 18.9715 18.9962C18.0992 18.9962 16.7817 18.0088 15.363 18.038C13.5137 18.0978 11.7898 19.1491 10.8901 20.7659C8.95607 24.1143 10.3987 29.0354 12.2513 31.742C13.1782 33.0673 14.2615 34.5478 15.6789 34.4953C17.066 34.4377 17.584 33.6108 19.2583 33.6108C20.9171 33.6108 21.4031 34.4953 22.8493 34.4619C24.3377 34.4377 25.2754 33.1306 26.1698 31.7927C26.8358 30.8484 27.3483 29.8047 27.6882 28.7002C25.9391 27.9604 24.771 26.2002 24.769 24.3011Z" fill="white"/>
<path d="M22.0373 16.2113C22.8489 15.2371 23.2487 13.9849 23.1518 12.7207C21.912 12.8509 20.7668 13.4435 19.9443 14.3803C19.14 15.2956 18.7214 16.5258 18.8006 17.7417C20.0408 17.7545 21.2601 17.178 22.0373 16.2113Z" fill="white"/>
<rect x="0.5" y="0.5" width="143" height="47" rx="6.5" stroke="white"/>
</svg>
