<svg width="162" height="48" viewBox="0 0 162 48" fill="none" xmlns="http://www.w3.org/2000/svg">
<rect x="0.5" y="0.5" width="161" height="47" rx="4.5" fill="black"/>
<path d="M81.7633 26.1018C78.9409 26.1018 76.6405 28.2486 76.6405 31.2054C76.6405 34.1442 78.9409 36.309 81.7633 36.309C84.5869 36.309 86.8873 34.1442 86.8873 31.2054C86.8861 28.2486 84.5857 26.1018 81.7633 26.1018ZM81.7633 34.3002C80.2165 34.3002 78.8833 33.0246 78.8833 31.2066C78.8833 29.3694 80.2177 28.113 81.7633 28.113C83.3101 28.113 84.6433 29.3694 84.6433 31.2066C84.6433 33.0234 83.3101 34.3002 81.7633 34.3002ZM70.5865 26.1018C67.7641 26.1018 65.4637 28.2486 65.4637 31.2054C65.4637 34.1442 67.7641 36.309 70.5865 36.309C73.4101 36.309 75.7105 34.1442 75.7105 31.2054C75.7105 28.2486 73.4101 26.1018 70.5865 26.1018ZM70.5865 34.3002C69.0397 34.3002 67.7065 33.0246 67.7065 31.2066C67.7065 29.3694 69.0409 28.113 70.5865 28.113C72.1333 28.113 73.4665 29.3694 73.4665 31.2066C73.4677 33.0234 72.1333 34.3002 70.5865 34.3002ZM57.2929 27.669V29.8338H62.4745C62.3197 31.0518 61.9141 31.941 61.2949 32.559C60.5413 33.3126 59.3617 34.1442 57.2929 34.1442C54.1033 34.1442 51.6097 31.5726 51.6097 28.383C51.6097 25.1934 54.1033 22.6218 57.2929 22.6218C59.0137 22.6218 60.2701 23.2986 61.1977 24.1686L62.7253 22.641C61.4293 21.4038 59.7097 20.457 57.2929 20.457C52.9237 20.457 49.2505 24.0138 49.2505 28.383C49.2505 32.7522 52.9237 36.309 57.2929 36.309C59.6509 36.309 61.4305 35.535 62.8213 34.0854C64.2517 32.655 64.6969 30.6438 64.6969 29.0202C64.6969 28.5186 64.6585 28.0542 64.5805 27.6678H57.2929V27.669ZM111.662 29.3502C111.238 28.2102 109.942 26.1018 107.293 26.1018C104.664 26.1018 102.479 28.1706 102.479 31.2054C102.479 34.0662 104.645 36.309 107.544 36.309C109.883 36.309 111.236 34.8786 111.798 34.047L110.058 32.8866C109.478 33.7374 108.685 34.2978 107.544 34.2978C106.404 34.2978 105.592 33.7758 105.07 32.751L111.894 29.9286L111.662 29.3502ZM104.702 31.0518C104.645 29.079 106.23 28.0746 107.371 28.0746C108.26 28.0746 109.014 28.5198 109.266 29.157L104.702 31.0518ZM99.1549 36.0006H101.396V20.9994H99.1549V36.0006ZM95.4805 27.243H95.4037C94.9009 26.643 93.9337 26.1018 92.7169 26.1018C90.1645 26.1018 87.8257 28.3446 87.8257 31.2258C87.8257 34.0866 90.1645 36.3102 92.7169 36.3102C93.9349 36.3102 94.9009 35.769 95.4037 35.151H95.4805V35.8854C95.4805 37.8378 94.4365 38.8818 92.7553 38.8818C91.3825 38.8818 90.5317 37.8966 90.1837 37.065L88.2313 37.8774C88.7917 39.2298 90.2797 40.893 92.7553 40.893C95.3845 40.893 97.6081 39.3462 97.6081 35.5758V26.4126H95.4817V27.243H95.4805ZM92.9101 34.3002C91.3633 34.3002 90.0685 33.0042 90.0685 31.2258C90.0685 29.427 91.3633 28.113 92.9101 28.113C94.4365 28.113 95.6353 29.427 95.6353 31.2258C95.6353 33.0042 94.4365 34.3002 92.9101 34.3002ZM122.167 20.9994H116.802V36.0006H119.04V30.3174H122.166C124.648 30.3174 127.088 28.521 127.088 25.659C127.088 22.797 124.649 20.9994 122.167 20.9994ZM122.225 28.2294H119.04V23.0874H122.225C123.899 23.0874 124.849 24.4734 124.849 25.659C124.849 26.8206 123.899 28.2294 122.225 28.2294ZM136.063 26.0754C134.442 26.0754 132.763 26.7894 132.068 28.3722L134.056 29.2014C134.48 28.3722 135.272 28.101 136.102 28.101C137.26 28.101 138.437 28.7958 138.456 30.0306V30.1854C138.05 29.9538 137.182 29.607 136.121 29.607C133.979 29.607 131.797 30.7842 131.797 32.9838C131.797 34.9914 133.554 36.2838 135.522 36.2838C137.027 36.2838 137.857 35.6082 138.378 34.8162H138.455V35.9742H140.617V30.2226C140.618 27.561 138.629 26.0754 136.063 26.0754ZM135.792 34.2966C135.06 34.2966 134.036 33.9294 134.036 33.0222C134.036 31.8642 135.311 31.4202 136.411 31.4202C137.394 31.4202 137.858 31.6326 138.456 31.9218C138.282 33.3126 137.086 34.2966 135.792 34.2966ZM148.492 26.403L145.925 32.907H145.848L143.184 26.403H140.772L144.767 35.493L142.489 40.5498H144.824L150.982 26.403H148.492ZM128.324 36.0006H130.562V20.9994H128.324V36.0006Z" fill="white"/>
<path d="M56.9018 12.2918C56.9018 13.2974 56.6042 14.0978 56.0078 14.6954C55.331 15.4058 54.4478 15.761 53.363 15.761C52.3238 15.761 51.4394 15.401 50.7134 14.681C49.9862 13.9598 49.6226 13.067 49.6226 12.0014C49.6226 10.9346 49.9862 10.0418 50.7134 9.32182C51.4394 8.60062 52.3238 8.24063 53.363 8.24063C53.879 8.24063 54.3722 8.34143 54.8402 8.54183C55.3094 8.74343 55.685 9.01103 55.9658 9.34583L55.3334 9.97943C54.857 9.40943 54.2006 9.12503 53.3618 9.12503C52.6034 9.12503 51.9482 9.39143 51.395 9.92423C50.8418 10.457 50.5658 11.1494 50.5658 12.0002C50.5658 12.851 50.8418 13.5434 51.395 14.0762C51.9482 14.609 52.6034 14.8754 53.3618 14.8754C54.1658 14.8754 54.8366 14.6078 55.373 14.0714C55.721 13.7222 55.9226 13.2362 55.9766 12.6134H53.3618V11.7482H56.8502C56.8862 11.9366 56.9018 12.1178 56.9018 12.2918Z" fill="white"/>
<path d="M62.4339 9.28469H59.1555V11.5671H62.1123V12.4323H59.1555V14.7147H62.4339V15.6003H58.2303V8.40029H62.4339V9.28469Z" fill="white"/>
<path d="M66.3349 15.6003H65.4097V9.28469H63.3985V8.40029H68.3461V9.28469H66.3349V15.6003Z" fill="white"/>
<path d="M71.9257 15.6003V8.40029H72.8509V15.6003H71.9257Z" fill="white"/>
<path d="M76.9539 15.6003H76.0287V9.28469H74.0175V8.40029H78.9651V9.28469H76.9539V15.6003Z" fill="white"/>
<path d="M88.3308 14.6703C87.6228 15.3975 86.7432 15.7611 85.6908 15.7611C84.6384 15.7611 83.7588 15.3975 83.052 14.6703C82.344 13.9431 81.9912 13.0527 81.9912 12.0003C81.9912 10.9479 82.344 10.0575 83.052 9.33028C83.7588 8.60308 84.6384 8.23828 85.6908 8.23828C86.7372 8.23828 87.6156 8.60428 88.326 9.33508C89.0364 10.0659 89.3916 10.9539 89.3916 12.0003C89.3916 13.0527 89.0376 13.9431 88.3308 14.6703ZM83.7348 14.0667C84.2676 14.6067 84.9192 14.8755 85.6908 14.8755C86.4624 14.8755 87.1152 14.6055 87.6468 14.0667C88.1796 13.5267 88.4472 12.8379 88.4472 12.0003C88.4472 11.1627 88.1796 10.4739 87.6468 9.93388C87.1152 9.39388 86.4624 9.12508 85.6908 9.12508C84.9192 9.12508 84.2676 9.39508 83.7348 9.93388C83.2032 10.4739 82.9356 11.1627 82.9356 12.0003C82.9356 12.8379 83.2032 13.5267 83.7348 14.0667Z" fill="white"/>
<path d="M90.69 15.6003V8.40029H91.8156L95.3148 14.0007H95.3544L95.3148 12.6135V8.40029H96.24V15.6003H95.274L91.6129 9.72749H91.5732L91.6129 11.1147V15.6003H90.69Z" fill="white"/>
<path d="M56.9018 12.2918C56.9018 13.2974 56.6042 14.0978 56.0078 14.6954C55.331 15.4058 54.4478 15.761 53.363 15.761C52.3238 15.761 51.4394 15.401 50.7134 14.681C49.9862 13.9598 49.6226 13.067 49.6226 12.0014C49.6226 10.9346 49.9862 10.0418 50.7134 9.32182C51.4394 8.60062 52.3238 8.24063 53.363 8.24063C53.879 8.24063 54.3722 8.34143 54.8402 8.54183C55.3094 8.74343 55.685 9.01103 55.9658 9.34583L55.3334 9.97943C54.857 9.40943 54.2006 9.12503 53.3618 9.12503C52.6034 9.12503 51.9482 9.39143 51.395 9.92423C50.8418 10.457 50.5658 11.1494 50.5658 12.0002C50.5658 12.851 50.8418 13.5434 51.395 14.0762C51.9482 14.609 52.6034 14.8754 53.3618 14.8754C54.1658 14.8754 54.8366 14.6078 55.373 14.0714C55.721 13.7222 55.9226 13.2362 55.9766 12.6134H53.3618V11.7482H56.8502C56.8862 11.9366 56.9018 12.1178 56.9018 12.2918Z" stroke="white" stroke-width="0.2" stroke-miterlimit="10"/>
<path d="M62.4339 9.28469H59.1555V11.5671H62.1123V12.4323H59.1555V14.7147H62.4339V15.6003H58.2303V8.40029H62.4339V9.28469Z" stroke="white" stroke-width="0.2" stroke-miterlimit="10"/>
<path d="M66.3349 15.6003H65.4097V9.28469H63.3985V8.40029H68.3461V9.28469H66.3349V15.6003Z" stroke="white" stroke-width="0.2" stroke-miterlimit="10"/>
<path d="M71.9257 15.6003V8.40029H72.8509V15.6003H71.9257Z" stroke="white" stroke-width="0.2" stroke-miterlimit="10"/>
<path d="M76.9539 15.6003H76.0287V9.28469H74.0175V8.40029H78.9651V9.28469H76.9539V15.6003Z" stroke="white" stroke-width="0.2" stroke-miterlimit="10"/>
<path d="M88.3308 14.6703C87.6228 15.3975 86.7432 15.7611 85.6908 15.7611C84.6384 15.7611 83.7588 15.3975 83.052 14.6703C82.344 13.9431 81.9912 13.0527 81.9912 12.0003C81.9912 10.9479 82.344 10.0575 83.052 9.33028C83.7588 8.60308 84.6384 8.23828 85.6908 8.23828C86.7372 8.23828 87.6156 8.60428 88.326 9.33508C89.0364 10.0659 89.3916 10.9539 89.3916 12.0003C89.3916 13.0527 89.0376 13.9431 88.3308 14.6703ZM83.7348 14.0667C84.2676 14.6067 84.9192 14.8755 85.6908 14.8755C86.4624 14.8755 87.1152 14.6055 87.6468 14.0667C88.1796 13.5267 88.4472 12.8379 88.4472 12.0003C88.4472 11.1627 88.1796 10.4739 87.6468 9.93388C87.1152 9.39388 86.4624 9.12508 85.6908 9.12508C84.9192 9.12508 84.2676 9.39508 83.7348 9.93388C83.2032 10.4739 82.9356 11.1627 82.9356 12.0003C82.9356 12.8379 83.2032 13.5267 83.7348 14.0667Z" stroke="white" stroke-width="0.2" stroke-miterlimit="10"/>
<path d="M90.69 15.6003V8.40029H91.8156L95.3148 14.0007H95.3544L95.3148 12.6135V8.40029H96.24V15.6003H95.274L91.6129 9.72749H91.5732L91.6129 11.1147V15.6003H90.69Z" stroke="white" stroke-width="0.2" stroke-miterlimit="10"/>
<g filter="url(#filter0_ii_1_162)">
<path d="M10.4357 11.5377C10.1447 11.8457 9.97266 12.3237 9.97266 12.9427V35.0587C9.97266 35.6787 10.1447 36.1557 10.4357 36.4637L10.5097 36.5357L22.8987 24.1467V24.0007V23.8547L10.5097 11.4647L10.4357 11.5377Z" fill="url(#paint0_linear_1_162)"/>
<path d="M27.0277 28.2777L22.8987 24.1467V24.0007V23.8547L27.0287 19.7247L27.1217 19.7777L32.0147 22.5577C33.4117 23.3517 33.4117 24.6507 32.0147 25.4457L27.1217 28.2257L27.0277 28.2777Z" fill="url(#paint1_linear_1_162)"/>
<g filter="url(#filter1_i_1_162)">
<path d="M27.1215 28.225L22.8975 24.001L10.4355 36.464C10.8955 36.952 11.6565 37.012 12.5135 36.526L27.1215 28.225Z" fill="url(#paint2_linear_1_162)"/>
</g>
<path d="M27.1217 19.7767L12.5137 11.4767C11.6567 10.9897 10.8957 11.0507 10.4357 11.5387L22.8987 24.0017L27.1217 19.7767Z" fill="url(#paint3_linear_1_162)"/>
</g>
<rect x="0.5" y="0.5" width="161" height="47" rx="4.5" stroke="white"/>
<defs>
<filter id="filter0_ii_1_162" x="9.97266" y="11.1406" width="23.0898" height="25.721" filterUnits="userSpaceOnUse" color-interpolation-filters="sRGB">
<feFlood flood-opacity="0" result="BackgroundImageFix"/>
<feBlend mode="normal" in="SourceGraphic" in2="BackgroundImageFix" result="shape"/>
<feColorMatrix in="SourceAlpha" type="matrix" values="0 0 0 0 0 0 0 0 0 0 0 0 0 0 0 0 0 0 127 0" result="hardAlpha"/>
<feOffset dy="-0.15"/>
<feComposite in2="hardAlpha" operator="arithmetic" k2="-1" k3="1"/>
<feColorMatrix type="matrix" values="0 0 0 0 0 0 0 0 0 0 0 0 0 0 0 0 0 0 0.12 0"/>
<feBlend mode="normal" in2="shape" result="effect1_innerShadow_1_162"/>
<feColorMatrix in="SourceAlpha" type="matrix" values="0 0 0 0 0 0 0 0 0 0 0 0 0 0 0 0 0 0 127 0" result="hardAlpha"/>
<feOffset dy="0.15"/>
<feComposite in2="hardAlpha" operator="arithmetic" k2="-1" k3="1"/>
<feColorMatrix type="matrix" values="0 0 0 0 1 0 0 0 0 1 0 0 0 0 1 0 0 0 0.25 0"/>
<feBlend mode="normal" in2="effect1_innerShadow_1_162" result="effect2_innerShadow_1_162"/>
</filter>
<filter id="filter1_i_1_162" x="10.4355" y="24.001" width="16.686" height="12.8607" filterUnits="userSpaceOnUse" color-interpolation-filters="sRGB">
<feFlood flood-opacity="0" result="BackgroundImageFix"/>
<feBlend mode="normal" in="SourceGraphic" in2="BackgroundImageFix" result="shape"/>
<feColorMatrix in="SourceAlpha" type="matrix" values="0 0 0 0 0 0 0 0 0 0 0 0 0 0 0 0 0 0 127 0" result="hardAlpha"/>
<feOffset dy="-0.15"/>
<feComposite in2="hardAlpha" operator="arithmetic" k2="-1" k3="1"/>
<feColorMatrix type="matrix" values="0 0 0 0 0 0 0 0 0 0 0 0 0 0 0 0 0 0 0.08 0"/>
<feBlend mode="normal" in2="shape" result="effect1_innerShadow_1_162"/>
</filter>
<linearGradient id="paint0_linear_1_162" x1="21.8005" y1="12.7087" x2="5.01846" y2="29.4907" gradientUnits="userSpaceOnUse">
<stop stop-color="#00A0FF"/>
<stop offset="0.0066" stop-color="#00A1FF"/>
<stop offset="0.2601" stop-color="#00BEFF"/>
<stop offset="0.5122" stop-color="#00D2FF"/>
<stop offset="0.7604" stop-color="#00DFFF"/>
<stop offset="1" stop-color="#00E3FF"/>
</linearGradient>
<linearGradient id="paint1_linear_1_162" x1="33.8332" y1="24.0007" x2="9.63728" y2="24.0007" gradientUnits="userSpaceOnUse">
<stop stop-color="#FFE000"/>
<stop offset="0.4087" stop-color="#FFBD00"/>
<stop offset="0.7754" stop-color="#FFA500"/>
<stop offset="1" stop-color="#FF9C00"/>
</linearGradient>
<linearGradient id="paint2_linear_1_162" x1="24.8276" y1="26.2949" x2="2.06915" y2="49.0534" gradientUnits="userSpaceOnUse">
<stop stop-color="#FF3A44"/>
<stop offset="1" stop-color="#C31162"/>
</linearGradient>
<linearGradient id="paint3_linear_1_162" x1="7.29707" y1="4.1765" x2="17.4594" y2="14.3388" gradientUnits="userSpaceOnUse">
<stop stop-color="#32A071"/>
<stop offset="0.0685" stop-color="#2DA771"/>
<stop offset="0.4762" stop-color="#15CF74"/>
<stop offset="0.8009" stop-color="#06E775"/>
<stop offset="1" stop-color="#00F076"/>
</linearGradient>
</defs>
</svg>
