<?xml version="1.0" encoding="UTF-8"?>
<svg xmlns="http://www.w3.org/2000/svg" xmlns:xlink="http://www.w3.org/1999/xlink" width="41px" height="40px" viewBox="0 0 41 40" version="1.1">
<g id="surface1">
<path style=" stroke:none;fill-rule:nonzero;fill:rgb(98.431373%,96.470588%,96.078431%);fill-opacity:1;" d="M 41 20 C 41 31.046875 31.820312 40 20.5 40 C 9.179688 40 0 31.046875 0 20 C 0 8.953125 9.179688 0 20.5 0 C 31.820312 0 41 8.953125 41 20 Z M 41 20 "/>
<path style=" stroke:none;fill-rule:nonzero;fill:rgb(26.27451%,8.627451%,36.078431%);fill-opacity:1;" d="M 22.089844 17.269531 C 22.425781 16.898438 22.703125 16.523438 23.046875 16.210938 C 24.109375 15.230469 25.367188 14.738281 26.835938 14.75 C 27.640625 14.753906 28.4375 14.816406 29.21875 15.035156 C 30.996094 15.535156 32.03125 16.730469 32.523438 18.429688 C 32.890625 19.699219 32.957031 21.003906 32.964844 22.316406 C 32.964844 25.078125 32.953125 27.839844 32.964844 30.605469 C 32.964844 30.863281 32.890625 30.929688 32.632812 30.929688 C 31.171875 30.921875 29.714844 30.921875 28.253906 30.929688 C 27.996094 30.929688 27.941406 30.855469 27.941406 30.621094 C 27.953125 27.988281 27.953125 25.359375 27.941406 22.734375 C 27.941406 22.074219 27.894531 21.421875 27.707031 20.773438 C 27.355469 19.59375 26.492188 18.996094 25.226562 19.058594 C 23.492188 19.148438 22.597656 19.984375 22.375 21.699219 C 22.324219 22.109375 22.300781 22.519531 22.300781 22.933594 C 22.300781 25.488281 22.300781 28.050781 22.304688 30.605469 C 22.304688 30.859375 22.238281 30.933594 21.972656 30.933594 C 20.5 30.921875 19.035156 30.925781 17.5625 30.933594 C 17.328125 30.933594 17.261719 30.875 17.261719 30.640625 C 17.265625 25.578125 17.265625 20.515625 17.261719 15.453125 C 17.261719 15.203125 17.34375 15.144531 17.589844 15.148438 C 18.984375 15.160156 20.382812 15.160156 21.777344 15.148438 C 22.03125 15.148438 22.097656 15.230469 22.09375 15.464844 C 22.078125 16.070312 22.09375 16.675781 22.09375 17.28125 Z M 22.089844 17.269531 "/>
<path style=" stroke:none;fill-rule:nonzero;fill:rgb(26.27451%,8.627451%,36.078431%);fill-opacity:1;" d="M 14.09375 23.054688 C 14.09375 25.558594 14.09375 28.066406 14.097656 30.570312 C 14.097656 30.851562 14.027344 30.929688 13.734375 30.929688 C 12.273438 30.914062 10.820312 30.921875 9.359375 30.929688 C 9.121094 30.929688 9.054688 30.875 9.054688 30.640625 C 9.0625 25.570312 9.0625 20.5 9.054688 15.429688 C 9.054688 15.21875 9.105469 15.144531 9.335938 15.144531 C 10.820312 15.15625 12.292969 15.15625 13.777344 15.144531 C 14.058594 15.144531 14.097656 15.25 14.097656 15.488281 C 14.09375 18.015625 14.097656 20.539062 14.097656 23.066406 Z M 14.09375 23.054688 "/>
<path style=" stroke:none;fill-rule:nonzero;fill:rgb(26.27451%,8.627451%,36.078431%);fill-opacity:1;" d="M 14.492188 10.113281 C 14.492188 11.683594 13.1875 12.96875 11.578125 12.96875 C 9.988281 12.96875 8.671875 11.691406 8.667969 10.140625 C 8.660156 8.574219 9.976562 7.285156 11.582031 7.289062 C 13.175781 7.289062 14.488281 8.570312 14.488281 10.113281 Z M 14.492188 10.113281 "/>
</g>
</svg>
